<mxfile host="65bd71144e">
    <diagram id="zNhqnP06yF8NErEKq1bA" name="Page-1">
        <mxGraphModel dx="1733" dy="984" grid="1" gridSize="10" guides="1" tooltips="1" connect="1" arrows="1" fold="1" page="1" pageScale="1" pageWidth="850" pageHeight="1100" math="0" shadow="0">
            <root>
                <mxCell id="0"/>
                <mxCell id="1" parent="0"/>
                <mxCell id="2" value="Cliente" style="shape=umlActor;verticalLabelPosition=bottom;verticalAlign=top;html=1;" vertex="1" parent="1">
                    <mxGeometry x="240" y="570" width="60" height="100" as="geometry"/>
                </mxCell>
                <mxCell id="21" value="Insere credenciais" style="ellipse;whiteSpace=wrap;html=1;" vertex="1" parent="1">
                    <mxGeometry x="425" y="240" width="120" height="80" as="geometry"/>
                </mxCell>
                <mxCell id="24" value="Envia credenciais&lt;span style=&quot;font-family: monospace; font-size: 0px; text-align: start; text-wrap-mode: nowrap;&quot;&gt;%3CmxGraphModel%3E%3Croot%3E%3CmxCell%20id%3D%220%22%2F%3E%3CmxCell%20id%3D%221%22%20parent%3D%220%22%2F%3E%3CmxCell%20id%3D%222%22%20value%3D%22Insere%20credenciais%22%20style%3D%22ellipse%3BwhiteSpace%3Dwrap%3Bhtml%3D1%3B%22%20vertex%3D%221%22%20parent%3D%221%22%3E%3CmxGeometry%20x%3D%22250%22%20y%3D%22140%22%20width%3D%22120%22%20height%3D%2280%22%20as%3D%22geometry%22%2F%3E%3C%2FmxCell%3E%3C%2Froot%3E%3C%2FmxGraphModel%3E&lt;/span&gt;" style="ellipse;whiteSpace=wrap;html=1;" vertex="1" parent="1">
                    <mxGeometry x="540" y="310" width="120" height="80" as="geometry"/>
                </mxCell>
                <mxCell id="25" value="Verifica credenciais" style="ellipse;whiteSpace=wrap;html=1;" vertex="1" parent="1">
                    <mxGeometry x="830" y="320" width="120" height="80" as="geometry"/>
                </mxCell>
                <mxCell id="27" value="Login confirmado" style="ellipse;whiteSpace=wrap;html=1;" vertex="1" parent="1">
                    <mxGeometry x="1040" y="220" width="120" height="80" as="geometry"/>
                </mxCell>
                <mxCell id="28" value="Exibe formularios" style="ellipse;whiteSpace=wrap;html=1;" vertex="1" parent="1">
                    <mxGeometry x="910" y="520" width="120" height="80" as="geometry"/>
                </mxCell>
                <mxCell id="29" value="Exibe Dashboard" style="ellipse;whiteSpace=wrap;html=1;" vertex="1" parent="1">
                    <mxGeometry x="880" y="430" width="120" height="80" as="geometry"/>
                </mxCell>
                <mxCell id="30" value="Preenche dados" style="ellipse;whiteSpace=wrap;html=1;" vertex="1" parent="1">
                    <mxGeometry x="510" y="430" width="120" height="80" as="geometry"/>
                </mxCell>
                <mxCell id="31" value="Envia dados" style="ellipse;whiteSpace=wrap;html=1;" vertex="1" parent="1">
                    <mxGeometry x="720" y="410" width="120" height="80" as="geometry"/>
                </mxCell>
                <mxCell id="32" value="Calcula % gordura" style="ellipse;whiteSpace=wrap;html=1;" vertex="1" parent="1">
                    <mxGeometry x="670" y="550" width="120" height="80" as="geometry"/>
                </mxCell>
                <mxCell id="33" value="Salva dados" style="ellipse;whiteSpace=wrap;html=1;" vertex="1" parent="1">
                    <mxGeometry x="880" y="620" width="120" height="80" as="geometry"/>
                </mxCell>
                <mxCell id="35" value="Pergunta objetivo" style="ellipse;whiteSpace=wrap;html=1;" vertex="1" parent="1">
                    <mxGeometry x="770" y="700" width="120" height="80" as="geometry"/>
                </mxCell>
                <mxCell id="37" value="Solicita plano" style="ellipse;whiteSpace=wrap;html=1;" vertex="1" parent="1">
                    <mxGeometry x="480" y="710" width="120" height="80" as="geometry"/>
                </mxCell>
                <mxCell id="38" value="Gera plano" style="ellipse;whiteSpace=wrap;html=1;" vertex="1" parent="1">
                    <mxGeometry x="740" y="790" width="120" height="80" as="geometry"/>
                </mxCell>
                <mxCell id="39" value="Salvo plano" style="ellipse;whiteSpace=wrap;html=1;" vertex="1" parent="1">
                    <mxGeometry x="940" y="790" width="120" height="80" as="geometry"/>
                </mxCell>
                <mxCell id="42" value="Acessa Dashboard" style="ellipse;whiteSpace=wrap;html=1;" vertex="1" parent="1">
                    <mxGeometry x="520" y="520" width="120" height="80" as="geometry"/>
                </mxCell>
                <mxCell id="43" value="Solicita progresso" style="ellipse;whiteSpace=wrap;html=1;" vertex="1" parent="1">
                    <mxGeometry x="485" y="810" width="120" height="80" as="geometry"/>
                </mxCell>
                <mxCell id="47" value="Envia progresso" style="ellipse;whiteSpace=wrap;html=1;" vertex="1" parent="1">
                    <mxGeometry x="900" y="910" width="120" height="80" as="geometry"/>
                </mxCell>
                <mxCell id="49" value="Sistema" style="shape=umlActor;verticalLabelPosition=bottom;verticalAlign=top;html=1;" vertex="1" parent="1">
                    <mxGeometry x="1280" y="590" width="60" height="100" as="geometry"/>
                </mxCell>
                <mxCell id="56" value="" style="html=1;verticalAlign=bottom;labelBackgroundColor=none;endArrow=block;endFill=1;" edge="1" parent="1" source="2" target="21">
                    <mxGeometry width="160" relative="1" as="geometry">
                        <mxPoint x="300" y="430" as="sourcePoint"/>
                        <mxPoint x="460" y="430" as="targetPoint"/>
                    </mxGeometry>
                </mxCell>
                <mxCell id="57" value="" style="html=1;verticalAlign=bottom;labelBackgroundColor=none;endArrow=block;endFill=1;" edge="1" parent="1" source="2" target="24">
                    <mxGeometry width="160" relative="1" as="geometry">
                        <mxPoint x="310" y="596" as="sourcePoint"/>
                        <mxPoint x="569" y="304" as="targetPoint"/>
                    </mxGeometry>
                </mxCell>
                <mxCell id="58" value="&amp;lt;&amp;lt;include&amp;gt;&amp;gt;" style="html=1;verticalAlign=bottom;labelBackgroundColor=none;endArrow=open;endFill=0;dashed=1;" edge="1" parent="1" source="24" target="25">
                    <mxGeometry x="0.0257" y="5" width="160" relative="1" as="geometry">
                        <mxPoint x="210" y="290" as="sourcePoint"/>
                        <mxPoint x="370" y="290" as="targetPoint"/>
                        <mxPoint as="offset"/>
                    </mxGeometry>
                </mxCell>
                <mxCell id="59" value="" style="html=1;verticalAlign=bottom;labelBackgroundColor=none;endArrow=block;endFill=1;" edge="1" parent="1" source="49" target="25">
                    <mxGeometry width="160" relative="1" as="geometry">
                        <mxPoint x="350" y="250" as="sourcePoint"/>
                        <mxPoint x="510" y="250" as="targetPoint"/>
                    </mxGeometry>
                </mxCell>
                <mxCell id="60" value="&amp;lt;&amp;lt;extend&amp;gt;&amp;gt;" style="html=1;verticalAlign=bottom;labelBackgroundColor=none;endArrow=open;endFill=0;dashed=1;" edge="1" parent="1" source="25" target="27">
                    <mxGeometry width="160" relative="1" as="geometry">
                        <mxPoint x="350" y="350" as="sourcePoint"/>
                        <mxPoint x="510" y="350" as="targetPoint"/>
                    </mxGeometry>
                </mxCell>
                <mxCell id="61" value="" style="html=1;verticalAlign=bottom;labelBackgroundColor=none;endArrow=block;endFill=1;" edge="1" parent="1" source="49" target="29">
                    <mxGeometry width="160" relative="1" as="geometry">
                        <mxPoint x="1280" y="591" as="sourcePoint"/>
                        <mxPoint x="1013" y="418" as="targetPoint"/>
                    </mxGeometry>
                </mxCell>
                <mxCell id="62" value="" style="html=1;verticalAlign=bottom;labelBackgroundColor=none;endArrow=block;endFill=1;" edge="1" parent="1" source="49" target="28">
                    <mxGeometry width="160" relative="1" as="geometry">
                        <mxPoint x="1280" y="600" as="sourcePoint"/>
                        <mxPoint x="1024" y="517" as="targetPoint"/>
                    </mxGeometry>
                </mxCell>
                <mxCell id="63" value="&amp;lt;&amp;lt;include&amp;gt;&amp;gt;" style="html=1;verticalAlign=bottom;labelBackgroundColor=none;endArrow=open;endFill=0;dashed=1;" edge="1" parent="1" source="30" target="31">
                    <mxGeometry x="-0.0872" y="15" width="160" relative="1" as="geometry">
                        <mxPoint x="675" y="345" as="sourcePoint"/>
                        <mxPoint x="910" y="365" as="targetPoint"/>
                        <mxPoint as="offset"/>
                    </mxGeometry>
                </mxCell>
                <mxCell id="64" value="" style="html=1;verticalAlign=bottom;labelBackgroundColor=none;endArrow=block;endFill=1;" edge="1" parent="1" source="2" target="30">
                    <mxGeometry width="160" relative="1" as="geometry">
                        <mxPoint x="310" y="606" as="sourcePoint"/>
                        <mxPoint x="577" y="391" as="targetPoint"/>
                    </mxGeometry>
                </mxCell>
                <mxCell id="65" value="&amp;lt;&amp;lt;extend&amp;gt;&amp;gt;" style="html=1;verticalAlign=bottom;labelBackgroundColor=none;endArrow=open;endFill=0;dashed=1;" edge="1" parent="1" source="31" target="32">
                    <mxGeometry width="160" relative="1" as="geometry">
                        <mxPoint x="210" y="340" as="sourcePoint"/>
                        <mxPoint x="370" y="340" as="targetPoint"/>
                    </mxGeometry>
                </mxCell>
                <mxCell id="66" value="&amp;lt;&amp;lt;include&amp;gt;&amp;gt;" style="html=1;verticalAlign=bottom;labelBackgroundColor=none;endArrow=open;endFill=0;dashed=1;" edge="1" parent="1" source="32" target="33">
                    <mxGeometry x="0.1288" y="3" width="160" relative="1" as="geometry">
                        <mxPoint x="210" y="290" as="sourcePoint"/>
                        <mxPoint x="370" y="290" as="targetPoint"/>
                        <mxPoint as="offset"/>
                    </mxGeometry>
                </mxCell>
                <mxCell id="67" value="" style="html=1;verticalAlign=bottom;labelBackgroundColor=none;endArrow=block;endFill=1;" edge="1" parent="1" source="49" target="33">
                    <mxGeometry width="160" relative="1" as="geometry">
                        <mxPoint x="1280" y="609" as="sourcePoint"/>
                        <mxPoint x="1020" y="602" as="targetPoint"/>
                    </mxGeometry>
                </mxCell>
                <mxCell id="69" value="" style="html=1;verticalAlign=bottom;labelBackgroundColor=none;endArrow=block;endFill=1;" edge="1" parent="1" source="49" target="32">
                    <mxGeometry width="160" relative="1" as="geometry">
                        <mxPoint x="1280" y="606" as="sourcePoint"/>
                        <mxPoint x="1039" y="577" as="targetPoint"/>
                        <Array as="points">
                            <mxPoint x="1030" y="610"/>
                        </Array>
                    </mxGeometry>
                </mxCell>
                <mxCell id="70" value="Responde objetivo" style="ellipse;whiteSpace=wrap;html=1;" vertex="1" parent="1">
                    <mxGeometry x="485" y="610" width="120" height="80" as="geometry"/>
                </mxCell>
                <mxCell id="71" value="&amp;lt;&amp;lt;include&amp;gt;&amp;gt;" style="html=1;verticalAlign=bottom;labelBackgroundColor=none;endArrow=open;endFill=0;dashed=1;" edge="1" parent="1" source="35" target="70">
                    <mxGeometry x="0.1288" y="3" width="160" relative="1" as="geometry">
                        <mxPoint x="865" y="636" as="sourcePoint"/>
                        <mxPoint x="955" y="664" as="targetPoint"/>
                        <mxPoint as="offset"/>
                    </mxGeometry>
                </mxCell>
                <mxCell id="72" value="" style="html=1;verticalAlign=bottom;labelBackgroundColor=none;endArrow=block;endFill=1;" edge="1" parent="1" source="2" target="70">
                    <mxGeometry width="160" relative="1" as="geometry">
                        <mxPoint x="310" y="615" as="sourcePoint"/>
                        <mxPoint x="532" y="504" as="targetPoint"/>
                    </mxGeometry>
                </mxCell>
                <mxCell id="73" value="" style="html=1;verticalAlign=bottom;labelBackgroundColor=none;endArrow=block;endFill=1;" edge="1" parent="1" source="49" target="35">
                    <mxGeometry width="160" relative="1" as="geometry">
                        <mxPoint x="1280" y="617" as="sourcePoint"/>
                        <mxPoint x="1067" y="667" as="targetPoint"/>
                    </mxGeometry>
                </mxCell>
                <mxCell id="74" value="" style="html=1;verticalAlign=bottom;labelBackgroundColor=none;endArrow=block;endFill=1;" edge="1" parent="1" source="2" target="37">
                    <mxGeometry width="160" relative="1" as="geometry">
                        <mxPoint x="310" y="628" as="sourcePoint"/>
                        <mxPoint x="520" y="614" as="targetPoint"/>
                    </mxGeometry>
                </mxCell>
                <mxCell id="75" value="" style="html=1;verticalAlign=bottom;labelBackgroundColor=none;endArrow=block;endFill=1;" edge="1" parent="1" source="49" target="38">
                    <mxGeometry width="160" relative="1" as="geometry">
                        <mxPoint x="1280" y="620" as="sourcePoint"/>
                        <mxPoint x="924" y="733" as="targetPoint"/>
                    </mxGeometry>
                </mxCell>
                <mxCell id="76" value="" style="html=1;verticalAlign=bottom;labelBackgroundColor=none;endArrow=block;endFill=1;" edge="1" parent="1" source="49" target="39">
                    <mxGeometry width="160" relative="1" as="geometry">
                        <mxPoint x="1290" y="630" as="sourcePoint"/>
                        <mxPoint x="917" y="825" as="targetPoint"/>
                    </mxGeometry>
                </mxCell>
                <mxCell id="77" value="&amp;lt;&amp;lt;include&amp;gt;&amp;gt;" style="html=1;verticalAlign=bottom;labelBackgroundColor=none;endArrow=open;endFill=0;dashed=1;" edge="1" parent="1" source="37" target="38">
                    <mxGeometry x="0.1288" y="3" width="160" relative="1" as="geometry">
                        <mxPoint x="821" y="727" as="sourcePoint"/>
                        <mxPoint x="629" y="633" as="targetPoint"/>
                        <mxPoint as="offset"/>
                    </mxGeometry>
                </mxCell>
                <mxCell id="78" value="&amp;lt;&amp;lt;include&amp;gt;&amp;gt;" style="html=1;verticalAlign=bottom;labelBackgroundColor=none;endArrow=open;endFill=0;dashed=1;" edge="1" parent="1" source="38" target="39">
                    <mxGeometry x="0.1288" y="3" width="160" relative="1" as="geometry">
                        <mxPoint x="615" y="776" as="sourcePoint"/>
                        <mxPoint x="815" y="834" as="targetPoint"/>
                        <mxPoint as="offset"/>
                    </mxGeometry>
                </mxCell>
                <mxCell id="79" value="" style="html=1;verticalAlign=bottom;labelBackgroundColor=none;endArrow=block;endFill=1;" edge="1" parent="1" source="2" target="42">
                    <mxGeometry width="160" relative="1" as="geometry">
                        <mxPoint x="310" y="615" as="sourcePoint"/>
                        <mxPoint x="532" y="504" as="targetPoint"/>
                    </mxGeometry>
                </mxCell>
                <mxCell id="80" value="" style="html=1;verticalAlign=bottom;labelBackgroundColor=none;endArrow=block;endFill=1;" edge="1" parent="1" source="49" target="47">
                    <mxGeometry width="160" relative="1" as="geometry">
                        <mxPoint x="1280" y="635" as="sourcePoint"/>
                        <mxPoint x="1037" y="839" as="targetPoint"/>
                    </mxGeometry>
                </mxCell>
                <mxCell id="81" value="" style="html=1;verticalAlign=bottom;labelBackgroundColor=none;endArrow=block;endFill=1;" edge="1" parent="1" source="2" target="43">
                    <mxGeometry width="160" relative="1" as="geometry">
                        <mxPoint x="310" y="644" as="sourcePoint"/>
                        <mxPoint x="501" y="737" as="targetPoint"/>
                    </mxGeometry>
                </mxCell>
                <mxCell id="82" value="&amp;lt;&amp;lt;include&amp;gt;&amp;gt;" style="html=1;verticalAlign=bottom;labelBackgroundColor=none;endArrow=open;endFill=0;dashed=1;" edge="1" parent="1" source="43" target="47">
                    <mxGeometry x="0.1288" y="3" width="160" relative="1" as="geometry">
                        <mxPoint x="605" y="776" as="sourcePoint"/>
                        <mxPoint x="765" y="824" as="targetPoint"/>
                        <mxPoint as="offset"/>
                    </mxGeometry>
                </mxCell>
            </root>
        </mxGraphModel>
    </diagram>
</mxfile>